# Blender 5.0.0
# www.blender.org
mtllib default_tree.mtl
o tree2
v 0.000000 0.008273 -0.115107
v 0.130426 1.237933 -0.066264
v 0.109473 0.008273 -0.035570
v 0.193507 1.236648 -0.020562
v 0.067658 0.008273 0.093123
v 0.169346 1.237010 0.053768
v -0.067658 0.008273 0.093123
v 0.091708 1.238754 0.053467
v -0.109473 0.008273 -0.035570
v 0.067734 1.238849 -0.020417
v 0.229297 1.876926 -0.041559
v 0.268660 1.876335 -0.012820
v 0.253578 1.876280 0.033556
v 0.204897 1.877277 0.033657
v 0.189778 1.877099 -0.012850
v 0.115898 1.093889 -0.062588
v 0.175423 1.093889 -0.019341
v 0.152687 1.093889 0.050634
v 0.079110 1.093889 0.050634
v 0.056374 1.093889 -0.019341
v 0.133596 1.405951 -0.400460
v 0.087167 1.405958 -0.392186
v 0.123683 1.359143 -0.405248
v 0.077230 1.359233 -0.397189
v 0.095976 1.656777 -0.612107
v 0.049552 1.656777 -0.603857
v 0.086054 1.609918 -0.616930
v 0.039629 1.609917 -0.608679
v 0.236798 1.546968 -0.018854
v 0.214635 1.546968 0.049357
v 0.120804 1.548508 -0.018910
v 0.178999 1.548508 -0.061191
v 0.143115 1.549579 0.049604
v 0.244134 1.629563 -0.017054
v 0.139197 1.629985 -0.017064
v 0.224082 1.629554 0.044639
v 0.191696 1.629875 -0.055225
v 0.159249 1.630067 0.044697
v 0.201508 2.033752 0.593238
v 0.192456 2.012912 0.626789
v 0.170185 2.033752 0.593238
v 0.161133 2.012912 0.626789
v 0.166471 1.626042 0.270375
v 0.209540 1.626022 0.270304
v 0.197023 1.562854 0.285266
v 0.154113 1.562864 0.285446
v 0.201820 2.293386 0.954013
v 0.337714 2.306312 0.704603
v 0.364226 2.301196 0.385417
v 0.533142 2.068154 0.930563
v 0.586787 2.007260 0.603405
v 0.662135 1.870582 0.703331
v 0.541276 1.818084 0.400486
v 0.358989 1.829544 0.695693
v 0.364959 1.689771 0.464319
v 0.162277 2.054646 0.865150
v 0.157122 1.816066 0.692003
v 0.038537 1.709642 0.500422
v -0.348105 1.965481 0.624684
v -0.123706 2.282658 0.782228
v -0.248905 2.207554 0.464753
v 0.019070 1.780728 0.290516
v 0.038149 2.443152 0.730337
v -0.088155 2.455096 0.551111
v -0.058714 2.388773 0.363239
v 0.108497 2.500373 0.485712
v 0.147924 2.421051 0.334373
v 0.036004 2.622614 -0.160589
v -0.283989 2.127034 -0.229820
v -0.242425 1.754032 -0.111635
v -0.265768 1.840543 -0.754949
v -0.252398 1.556715 -0.632574
v -0.097372 1.646848 -0.974280
v 0.045656 1.480621 -0.700048
v 0.305019 1.964398 -0.894169
v 0.548425 1.683304 -0.832288
v 0.532243 2.447008 -0.397248
v 0.865400 2.139349 -0.668021
v 1.035874 1.876414 -0.634857
v 0.957673 2.145901 -0.082383
v 0.474951 2.445792 0.185357
v 0.633176 1.931825 0.331287
v 0.895209 1.595990 -0.372258
v 0.021269 2.499270 0.193159
v 0.175509 2.177073 0.279785
v 0.305461 1.782663 0.195365
v -0.116867 2.131872 0.161175
v -0.018552 1.792138 0.044173
vn 0.5848 -0.0803 -0.8072
vn 0.5852 -0.0791 -0.8070
vn 0.5853 -0.0790 -0.8070
vn 0.9444 -0.1168 0.3072
vn -0.0022 -0.0205 0.9998
vn 0.9463 -0.0991 0.3076
vn 0.9467 -0.0951 0.3077
vn 0.9463 -0.0993 0.3076
vn -0.9483 0.0765 0.3080
vn 0.2178 0.8790 0.4242
vn -0.0000 -1.0000 -0.0000
vn 0.0127 0.9999 0.0011
vn -0.5824 0.1329 -0.8020
vn 0.5890 -0.0340 -0.8074
vn 0.5882 -0.0442 -0.8075
vn 0.5881 -0.0447 -0.8075
vn 0.0020 0.0444 0.9990
vn -0.9346 0.1861 0.3032
vn -0.5848 0.1014 -0.8049
vn -0.9418 0.1393 0.3060
vn -0.0000 0.0391 0.9992
vn 0.9492 -0.0623 0.3084
vn 0.5876 -0.0236 -0.8088
vn -0.1319 -0.6508 -0.7477
vn -0.2797 -0.7677 -0.5765
vn 0.9899 -0.1264 -0.0649
vn -0.9939 0.1102 0.0102
vn -0.1733 0.1371 -0.9753
vn 0.1331 0.6508 0.7475
vn -0.9224 0.1588 0.3521
vn 0.9222 -0.1591 -0.3525
vn -0.9392 0.1593 0.3042
vn -0.0000 0.0133 0.9999
vn 0.5857 -0.0779 -0.8067
vn -0.5854 0.1045 -0.8040
vn 0.9425 -0.1333 0.3066
vn -0.9315 0.2043 0.3011
vn -0.0006 0.6208 -0.7839
vn 0.5891 -0.0337 -0.8074
vn -0.5812 0.1493 -0.8000
vn 0.9471 -0.0908 0.3078
vn -0.0000 0.8495 0.5276
vn 0.9712 -0.1368 0.1950
vn 0.0019 -0.6044 0.7967
vn -0.9736 0.1472 -0.1744
vn -0.9794 0.1991 0.0347
vn -0.0226 -0.9979 0.0614
vn 0.9876 -0.1390 0.0725
vn 0.0050 0.9998 0.0168
vn -0.1088 -0.1782 -0.9780
vn 0.4163 0.8515 0.3189
vn 0.4190 0.8659 0.2732
vn 0.0815 -0.7288 0.6799
vn -0.1530 -0.3224 0.9342
vn 0.1021 -0.8503 0.5163
vn 0.0244 -0.5875 0.8088
vn 0.2015 -0.6440 -0.7380
vn -0.2995 -0.7432 0.5983
vn -0.2703 -0.5617 0.7820
vn -0.7078 -0.1639 -0.6871
vn -0.4996 0.0396 -0.8654
vn -0.5574 0.7043 0.4397
vn 0.1943 0.1410 -0.9708
vn -0.1635 0.9700 0.1799
vn 0.5153 0.8069 -0.2887
vn 0.6235 0.7808 0.0393
vn 0.7732 0.6334 0.0312
vn 0.0201 -0.8664 0.4990
vn 0.5455 0.7674 0.3370
vn 0.8600 0.5081 0.0465
vn 0.8959 0.2064 -0.3933
vn 0.6499 0.2154 -0.7288
vn 0.5663 -0.8199 -0.0839
vn -0.1078 -0.6563 0.7467
vn -0.0920 -0.9457 -0.3117
vn -0.4651 0.1539 0.8718
vn -0.5856 -0.7827 -0.2108
vn -0.8445 0.4896 0.2172
vn -0.3959 -0.1683 0.9027
vn -0.7375 0.5922 -0.3246
vn -0.8512 0.4749 0.2234
vn -0.2658 0.8651 -0.4254
vn -0.1965 -0.9104 0.3641
vn -0.8790 0.2981 0.3720
vn -0.8402 0.5220 0.1470
vn -0.3097 0.5821 -0.7518
vn -0.1394 0.6327 -0.7617
vn 0.2161 -0.0277 -0.9760
vn 0.0684 0.6999 -0.7110
vn 0.2630 -0.8921 -0.3675
vn 0.8389 0.5265 -0.1381
vn 0.6261 0.7724 -0.1073
vn 0.8174 -0.3385 0.4660
vn 0.1908 -0.8564 0.4798
vn 0.0494 0.2817 0.9582
vn 0.0497 0.2814 0.9583
vn 0.0475 0.2836 0.9578
vn 0.0060 -0.9481 0.3180
vn -0.3836 0.0640 0.9213
vn -0.4744 -0.4062 0.7810
vn -0.9194 0.0220 0.3927
vn -0.9969 -0.0738 0.0263
vn 0.3432 0.0979 -0.9341
vn -0.7735 0.5447 -0.3240
vn -0.8602 -0.2356 -0.4524
vn -0.3077 -0.8763 -0.3707
vn -0.1289 -0.9219 0.3653
vn 0.1715 -0.8003 -0.5746
vn -0.3059 0.7491 -0.5876
vn 0.4866 -0.7146 -0.5025
vn 0.2675 0.9522 0.1473
vn 0.9389 -0.2379 0.2489
vn 0.6189 0.3849 0.6847
vn 0.5490 0.8340 0.0557
vn -0.2552 -0.2820 0.9248
vn 0.0454 0.2858 0.9572
vn -0.3587 -0.3491 0.8657
s 1
usemtl Tronco
f 16//1 2//2 4//3 17//1
f 17//4 4//4 6//4 18//4
f 18//5 6//5 8//5 19//5
f 36//6 34//7 12//8 13//8
f 19//9 8//9 10//9 20//9
f 10//10 2//10 21//10 22//10
f 1//11 3//11 5//11 7//11 9//11
f 12//12 11//12 15//12 14//12 13//12
f 37//13 35//13 15//13 11//13
f 34//14 37//15 11//16 12//16
f 38//17 36//17 13//17 14//17
f 35//18 38//18 14//18 15//18
f 9//19 20//19 16//19 1//19
f 7//20 19//20 20//20 9//20
f 5//21 18//21 19//21 7//21
f 3//22 17//22 18//22 5//22
f 1//23 16//23 17//23 3//23
f 23//24 24//24 28//24 27//24
f 16//25 20//25 24//25 23//25
f 2//26 16//26 23//26 21//26
f 20//27 10//27 22//27 24//27
f 28//28 26//28 25//28 27//28
f 22//29 21//29 25//29 26//29
f 24//30 22//30 26//30 28//30
f 21//31 23//31 27//31 25//31
f 10//32 8//32 33//32 31//32
f 8//33 6//33 30//33 33//33
f 4//3 2//2 32//34 29//34
f 2//35 10//35 31//35 32//35
f 6//36 4//36 29//36 30//36
f 31//37 33//37 38//37 35//37
f 44//38 43//38 41//38 39//38
f 29//39 32//39 37//15 34//14
f 32//40 31//40 35//40 37//40
f 30//41 29//41 34//7 36//6
f 42//42 40//42 39//42 41//42
f 45//43 44//43 39//43 40//43
f 46//44 45//44 40//44 42//44
f 43//45 46//45 42//45 41//45
f 38//46 33//46 46//46 43//46
f 33//47 30//47 45//47 46//47
f 30//48 36//48 44//48 45//48
f 36//49 38//49 43//49 44//49
usemtl Leaves
f 65//50 67//50 53//50
f 63//51 48//51 66//51
f 47//52 48//52 63//52
f 50//53 54//53 52//53
f 50//54 47//54 56//54
f 52//55 54//55 55//55
f 54//56 56//56 57//56
f 55//57 62//57 53//57
f 57//58 59//58 58//58
f 57//59 56//59 59//59
f 59//60 61//60 62//60
f 61//61 65//61 62//61
f 60//62 63//62 64//62
f 53//63 62//63 65//63
f 63//64 66//64 64//64
f 67//65 66//65 49//65
f 66//66 48//66 49//66
f 50//67 51//67 49//67 48//67
f 57//68 58//68 55//68 54//68
f 48//69 47//69 50//69
f 51//70 50//70 52//70
f 51//71 52//71 53//71
f 53//72 67//72 49//72 51//72
f 53//73 52//73 55//73
f 50//74 56//74 54//74
f 55//75 58//75 62//75
f 47//76 63//76 60//76 56//76
f 58//77 59//77 62//77
f 59//78 60//78 61//78
f 59//79 56//79 60//79
f 61//80 64//80 65//80
f 61//81 60//81 64//81
f 66//82 67//82 65//82 64//82
f 86//83 88//83 74//83
f 84//84 69//84 87//84
f 68//85 69//85 84//85
f 71//86 75//86 73//86
f 71//87 68//87 77//87
f 73//88 75//88 76//88
f 75//89 77//89 78//89
f 76//90 83//90 74//90
f 78//91 80//91 79//91
f 78//92 77//92 80//92
f 80//93 82//93 83//93
f 82//94 86//94 83//94
f 81//95 84//96 85//97
f 74//98 83//98 86//98
f 84//99 87//99 85//99
f 88//100 87//100 70//100
f 87//101 69//101 70//101
f 71//102 72//102 70//102 69//102
f 78//103 79//103 76//103 75//103
f 69//104 68//104 71//104
f 72//105 71//105 73//105
f 72//106 73//106 74//106
f 74//107 88//107 70//107 72//107
f 74//108 73//108 76//108
f 71//109 77//109 75//109
f 76//110 79//110 83//110
f 68//111 84//111 81//111 77//111
f 79//112 80//112 83//112
f 80//113 81//113 82//113
f 80//114 77//114 81//114
f 82//115 85//115 86//115
f 82//116 81//95 85//97
f 87//117 88//117 86//117 85//117
